<svg width="1400" height="560" viewBox="0 0 1400 560" xmlns="http://www.w3.org/2000/svg" role="img" aria-label="PDF / Image Merge promo wide">
  <defs>
    <linearGradient id="bg" x1="0" y1="0" x2="1" y2="1">
      <stop offset="0%" stop-color="#1f4ed8"/>
      <stop offset="100%" stop-color="#173a9e"/>
    </linearGradient>
    <linearGradient id="card" x1="0" y1="0" x2="1" y2="1">
      <stop offset="0%" stop-color="#ffffff"/>
      <stop offset="100%" stop-color="#eaf1ff"/>
    </linearGradient>
  </defs>
  <rect width="1400" height="560" rx="44" fill="url(#bg)"/>

  <rect x="110" y="90" width="460" height="380" rx="28" fill="url(#card)"/>
  <rect x="180" y="150" width="220" height="280" rx="18" fill="#ffffff"/>
  <rect x="240" y="180" width="220" height="280" rx="18" fill="#e8f0ff"/>
  <path d="M300 210h120M300 260h120M300 310h90" stroke="#2b5bd9" stroke-width="14" stroke-linecap="round"/>
  <path d="M210 430h320" stroke="#1f4ed8" stroke-width="18" stroke-linecap="round"/>
  <path d="M240 408l-24 22 24 22" fill="none" stroke="#ffffff" stroke-width="12" stroke-linecap="round" stroke-linejoin="round"/>
  <path d="M500 408l24 22-24 22" fill="none" stroke="#ffffff" stroke-width="12" stroke-linecap="round" stroke-linejoin="round"/>

  <g transform="translate(670 150)" fill="#ffffff">
    <text x="0" y="0" font-family="Avenir Next, Trebuchet MS, Segoe UI, sans-serif" font-size="44" font-weight="700">PDF / Image Merge</text>
    <text x="0" y="54" font-family="Avenir Next, Trebuchet MS, Segoe UI, sans-serif" font-size="22" opacity="0.9">Merge PDFs and images 路 Reorder pages 路 Export PDF</text>
    <text x="0" y="92" font-family="Avenir Next, Trebuchet MS, Segoe UI, sans-serif" font-size="20" opacity="0.8">Local only 路 Private 路 Works offline</text>
  </g>

  <g transform="translate(670 280)" fill="none" stroke="#ffffff" stroke-linecap="round" stroke-width="4">
    <circle cx="12" cy="12" r="8" stroke="none" fill="#ffffff"/>
    <path d="M30 12h420" opacity="0.9"/>
    <circle cx="12" cy="44" r="8" stroke="none" fill="#ffffff"/>
    <path d="M30 44h380" opacity="0.75"/>
    <circle cx="12" cy="76" r="8" stroke="none" fill="#ffffff"/>
    <path d="M30 76h340" opacity="0.6"/>
    <circle cx="12" cy="108" r="8" stroke="none" fill="#ffffff"/>
    <path d="M30 108h300" opacity="0.5"/>
  </g>
</svg>
